<svg xmlns="http://www.w3.org/2000/svg" width="40" height="34" viewBox="0 0 40 34">
  <defs>
    <style>
      .cls-1 {
        fill: #46b0dc;
        fill-rule: evenodd;
      }
    </style>
  </defs>
  <path id="Forma_1_copy_9" data-name="Forma 1 copy 9" class="cls-1" d="M839.419,3889c-10.263,0-18.582,7.61-18.582,17a15.732,15.732,0,0,0,1.715,7.14l-4.395,7.88a1.233,1.233,0,0,0,.112,1.37,1.246,1.246,0,0,0,.986.48,1.272,1.272,0,0,0,.332-0.05l9.621-2.62a19.716,19.716,0,0,0,10.211,2.8c10.262,0,18.581-7.61,18.581-17S849.681,3889,839.419,3889Zm-0.032,25.73a1.82,1.82,0,1,1,1.839-1.82A1.828,1.828,0,0,1,839.387,3914.73Zm1.927-8.67a5.287,5.287,0,0,0-.5.36v1.9a1.428,1.428,0,0,1-2.855,0v-2.05a3.089,3.089,0,0,1,1.743-2.55,2.142,2.142,0,0,0,1.319-2,1.635,1.635,0,0,0-3.269,0,1.428,1.428,0,0,1-2.855,0,4.49,4.49,0,0,1,8.979,0A4.874,4.874,0,0,1,841.314,3906.06Z" transform="translate(-818 -3889)"/>
</svg>
